<?xml version="1.0"?>
<svg xmlns:rdf="http://www.w3.org/1999/02/22-rdf-syntax-ns#" xmlns="http://www.w3.org/2000/svg" xmlns:cc="http://creativecommons.org/ns#" xmlns:xlink="http://www.w3.org/1999/xlink" xmlns:dc="http://purl.org/dc/elements/1.1/" xmlns:svg="http://www.w3.org/2000/svg" id="svg2" viewBox="0 0 768 768" version="1.1">
  <defs id="defs4">
    <clipPath id="clipPathFlag" clipPathUnits="userSpaceOnUse">
      <rect id="rect3918" fill-opacity=".67" ry="57" height="511" width="511" y=".5" x=".5"/>
    </clipPath>
    <linearGradient id="linearGradient3852-0">
      <stop id="stop3854-6" stop-color="#dbe3db" offset="0"/>
      <stop id="stop3856-1" stop-color="#dbe3db" stop-opacity="0" offset="1"/>
    </linearGradient>
    <linearGradient id="linearGradient5122" x1="342.19" xlink:href="#linearGradient3852-0" gradientUnits="userSpaceOnUse" y1="705.76" gradientTransform="matrix(1.1571 0 0 1.3167 -91.204 -253.99)" x2="358.08" y2="523.41"/>
    <linearGradient id="linearGradient5125" x1="405.26" xlink:href="#linearGradient3852-0" gradientUnits="userSpaceOnUse" y1="118.06" gradientTransform="matrix(.95303 0 0 .86647 11.575 -4.5016)" x2="405.75" y2="360.92"/>
    <filter id="filter5740">
      <feGaussianBlur id="feGaussianBlur5742" stdDeviation="5.12"/>
    </filter>
    <clipPath id="clipPath5796" clipPathUnits="userSpaceOnUse">
      <rect id="rect5798" ry="57" height="35px" width="50px" stroke="#00fa00" y="0" x="0" stroke-width="20" fill="none"/>
    </clipPath>
    <filter id="filter5912">
      <feGaussianBlur id="feGaussianBlur5914" stdDeviation="17.92"/>
    </filter>
  </defs>
  <g id="template-button">&gt;
  <g id="00" transform="translate(90,90)"><rect id="shadow" ry="57" height="512" filter="url(#filter5912)" width="512" stroke="#a8a8a8" y="56" x="38" stroke-width="5"/></g>
  <g id="01" transform="translate(128,128)" clip-path="url(#clipPathFlag)"><rect id="mask" ry="57" height="512" width="512" y="0" x="0" fill="#00f"/><g id="flag" clip-path="url(#clipPath9289)"><rect id="rect8734" style="width:0" height="512" width="512" y="0" x="0" fill="#fff"/><g id="g8553" clip-path="url(#clipPath8578)" transform="translate(0 15.957)"><g id="g8531" transform="matrix(1.0432 0 0 1.0432 -.0024051 -21.45)"><path id="path552" d="m6.2712 489.83 363.1-0.01-237.66-241.01 246.61 0.29-372.03-237.62-0.0188 478.35z" fill-rule="evenodd" stroke="#000063" stroke-width="12.431" fill="#ce0000"/><polygon id="polygon555" d="m 296.97868,523.24292 -21.02922,7.1358 16.4532,15.86944 -22.15922,-1.45491 9.1278,20.95781 -19.91568,-9.82413 0.41278,22.85555 -14.64016,-16.69771 -8.36508,21.27374 -7.1358,-21.02923 -15.86944,16.4532 1.45491,-22.15922 -20.95781,9.1278 9.82413,-19.91568 -22.85555,0.41278 16.69771,-14.64016 -21.27374,-8.36508 21.02922,-7.1358 -16.45319,-15.86944 22.15922,1.45491 -9.1278,-20.95781 19.91568,9.82413 -0.41278,-22.85555 14.64016,16.69771 8.36508,-21.27374 7.1358,21.02923 15.86944,-16.4532 -1.45492,22.15922 20.95782,-9.1278 -9.82413,19.91568 22.85555,-0.41278 -16.69772,14.64016 z" fill-rule="evenodd" transform="matrix(1.2301 0 0 1.1997 -192.06 -266.1)" points="296.98 523.24 275.95 530.38 292.4 546.25 270.24 544.79 279.37 565.75 259.46 555.93 259.87 578.78 245.23 562.08 236.86 583.36 229.73 562.33 213.86 578.78 215.31 556.62 194.36 565.75 204.18 545.84 181.32 546.25 198.02 531.61 176.75 523.24 197.78 516.11 181.32 500.24 203.48 501.69 194.36 480.74 214.27 490.56 213.86 467.7 228.5 484.4 236.86 463.13 244 484.16 259.87 467.7 258.41 489.86 279.37 480.74 269.55 500.65 292.4 500.24 275.7 514.88" stroke-width="1pt" fill="#fff"/><path id="path563" stroke-width="1pt" fill-rule="evenodd" fill="#fff" d="m142.18 184.6-10.861 8.04 5.353 4.423c13-10.048 22.25-19.231 29.48-34.471 1.695 20.342-16.951 66.004-65.884 66.508-52.371-0.044-70.543-48.492-68.522-67.366 9.621 17.455 15.492 25.966 30.594 35.054l4.6206-4.241-10.229-8.523 13.168-3.424-7.0846-11.924 13.796 1.005-1.7336-13.885 12.094 7.077 3.784-12.926 8.6895 10.411 8.1403-9.87 4.432 13.411 11.301-7.864-1.449 13.639 13.548-1.59-6.351 12.608 13.115 3.908z"/></g></g></g></g>
  <g id="02" transform="translate(0,38)"><path id="path3862-8" style="color:#000000" fill="url(#linearGradient5125)" d="m214.21 111.21c-45.245 0.18809-68.716 7.7308-64.094 83.553l2.8252 46.345c47.474 5.5124 56.664 18.445 104.36 21.914 68.073 4.9513 67.937 5.4209 130.56-14.384 62.628-19.805 5.8248-65.247 207.32-57.82 4.6033 0.16968 17.314-3.0527 27.462-12.15 5.5817-46.524-2.7842-69.143-66.934-68.876z"/><path id="path3079-9" style="color:#000000" fill="url(#linearGradient5122)" d="m531.03 495.17c-31.605 19.022-27.601 31.26-37.913 32.573-94.704 12.053-145.98-0.72701-165.8-12.061-59.588-34.078-68.468-13.014-100.22-16.574-20.115-2.2551-59.245 12.984-73.388 44.344 3.4722 27.608 18.111 32.098 44.281 31.986l356.06-1.5268c69.692-0.29885 56.335-8.4926 65.543-56.039-14.772-21.671-13.157 9.109-44.224-30.717z"/><rect id="rect5734" transform="translate(128,90)" clip-path="url(#clipPath5796)" ry="57" height="512" filter="url(#filter5740)" width="512" stroke="#000" y="0" x="0" stroke-width="20" fill="none"/></g>
 </g>
  <metadata>
    <rdf:RDF>
      <cc:Work>
        <dc:format>image/svg+xml</dc:format>
        <dc:type rdf:resource="http://purl.org/dc/dcmitype/StillImage"/>
        <cc:license rdf:resource="http://creativecommons.org/licenses/publicdomain/"/>
        <dc:publisher>
          <cc:Agent rdf:about="http://openclipart.org/">
            <dc:title>Openclipart</dc:title>
          </cc:Agent>
        </dc:publisher>
        <dc:title>np</dc:title>
        <dc:date>2011-08-21T12:01:27</dc:date>
        <dc:description>country flag buttons (with ISO-3166-1 naming convention)</dc:description>
        <dc:source>http://openclipart.org/detail/156901/np-by-koppi</dc:source>
        <dc:creator>
          <cc:Agent>
            <dc:title>koppi</dc:title>
          </cc:Agent>
        </dc:creator>
        <dc:subject>
          <rdf:Bag>
            <rdf:li>ISO3166-1</rdf:li>
            <rdf:li>button</rdf:li>
            <rdf:li>clip art</rdf:li>
            <rdf:li>clipart</rdf:li>
            <rdf:li>country</rdf:li>
            <rdf:li>flag</rdf:li>
            <rdf:li>flags</rdf:li>
            <rdf:li>squared</rdf:li>
          </rdf:Bag>
        </dc:subject>
      </cc:Work>
      <cc:License rdf:about="http://creativecommons.org/licenses/publicdomain/">
        <cc:permits rdf:resource="http://creativecommons.org/ns#Reproduction"/>
        <cc:permits rdf:resource="http://creativecommons.org/ns#Distribution"/>
        <cc:permits rdf:resource="http://creativecommons.org/ns#DerivativeWorks"/>
      </cc:License>
    </rdf:RDF>
  </metadata>
</svg>
